# xmcd
#
# Track frame offsets:
# 150
# 13023
# 24734
# 38332
# 53821
# 71138
# 87473
# 100505
# 115104
# 131631
# 145040
#
# Disc length: 2049 seconds
#
#
# Revision: 0
# Processed by: cddbd v1.5.2PL0 Copyright (c) Steve Scherf et al.
# Submitted via: FreeRIP 2.96 
#
DISCID=8b07ff0b
DTITLE=Gene Watson - My Heroes Have Always Been Country
DYEAR=2014
DGENRE=Country
TTITLE0=Here Comes My Baby Back Again
TTITLE1=Don't You Believe Her
TTITLE2=Slide Off Of Your Satin Sheets
TTITLE3=Make The World Go Away
TTITLE4=Long Black Veil
TTITLE5=It's Not Love (But It's Not Bad)
TTITLE6=Walk Through This World With Me
TTITLE7=Turn Off The Lights (The Party's Over)
TTITLE8=I Forget You Everyday
TTITLE9=Count Me Out
TTITLE10=Hello Trouble
EXTD=
EXTT0=
EXTT1=
EXTT2=
EXTT3=
EXTT4=
EXTT5=
EXTT6=
EXTT7=
EXTT8=
EXTT9=
EXTT10=
PLAYORDER=
